<svg xmlns="http://www.w3.org/2000/svg" width="258" height="210" data-name="Logo — FIXED">
  <path fill="none" d="M0-190h400v400H0z"/>
  <path fill="#464c75" stroke="#90a271" stroke-linejoin="round" stroke-width="5" d="M82.6 206.6c94.4 0 146-78.2 146-146 0-2.2 0-4.4-.2-6.6A104.4 104.4 0 0 0 254 27.4a102.4 102.4 0 0 1-29.5 8.1 51.5 51.5 0 0 0 22.6-28.4 102.8 102.8 0 0 1-32.6 12.5 51.3 51.3 0 0 0-87.4 46.8A145.6 145.6 0 0 1 21.4 12.8a51.3 51.3 0 0 0 15.9 68.5A51 51 0 0 1 14 74.8v.7a51.3 51.3 0 0 0 41.1 50.3 51.2 51.2 0 0 1-23.1.8 51.4 51.4 0 0 0 48 35.7 103 103 0 0 1-63.8 22 104.4 104.4 0 0 1-12.2-.8 145.2 145.2 0 0 0 78.6 23"/>
</svg>